<svg width="233" height="64" viewBox="0 0 233 64" fill="none" xmlns="http://www.w3.org/2000/svg">
<path d="M13.9887 52.8911L25.2108 22.798C25.7557 21.3546 26.0245 20.3781 26.0245 19.8686C26.0245 19.2177 25.6637 18.6941 24.9419 18.2908C24.4042 18.0007 23.3711 17.6752 21.8498 17.3143V16.3803H31.1686L45.1502 52.884H39.893L35.3362 40.7704H21.68L17.4063 52.8911H13.9887ZM28.6284 22.147L22.4442 38.6618H34.7489L28.6284 22.147Z" fill="white"/>
<path d="M47.1173 52.7213V50.6056L62.2098 29.5978H53.4218C51.4335 29.5978 50.0608 29.9799 49.3037 30.744C48.8296 31.2181 48.4546 32.1804 48.1645 33.638H47.1456V27.4821H67.3185V29.5978L52.325 50.6056H59.5352C61.9905 50.6056 63.6533 50.3367 64.5236 49.7919C65.3939 49.2471 65.9529 48.1857 66.2076 46.5937H67.3044V52.7213H47.1173Z" fill="white"/>
<path d="M94.362 52.8911V33.0082C94.362 31.5223 93.8667 30.4964 92.8902 29.9161C92.3454 29.626 91.4539 29.4067 90.2156 29.2652V28.3312L98.5154 27.0576V33.5318H98.6216C99.9589 29.2157 102.358 27.0576 105.832 27.0576C106.051 27.0576 106.214 27.0788 106.32 27.1142V31.6356C105.379 31.3525 104.785 31.211 104.537 31.211C100.525 31.211 98.5225 34.0908 98.5225 39.8505V52.8911H94.362Z" fill="white"/>
<path d="M10.9111 36.6519C10.9111 36.6519 -24.3968 -21.0577 67.1066 19.189C67.0995 19.189 -32.3711 -33.9639 10.9111 36.6519Z" fill="white"/>
<path d="M76.2198 29.7181C80.1115 29.7534 81.6398 29.8101 83.9607 32.8102C85.4395 34.7348 85.9206 37.7632 86.14 39.893H69.6323V43.2681V44.0818C69.6323 47.1456 70.5663 49.5301 72.4272 51.2283C74.1395 52.7425 76.4038 53.4996 79.2199 53.4996C86.8617 53.4996 90.6897 49.3674 90.6897 41.0958C90.6897 36.6169 89.5363 33.171 87.2226 30.7511C84.9088 28.3312 81.6469 27.1213 77.4368 27.1213C75.5547 27.1213 73.6655 27.2486 72.1159 27.4892L72.1583 27.5317H72.0805V32.7323H72.8447C73.0569 31.7063 73.34 31.02 73.6938 30.6874C74.1749 30.2275 74.9886 29.7959 76.1278 29.7251L76.2198 29.7181ZM86.331 43.2681V45.129V45.1361V45.1715H86.3239C85.9277 49.3108 83.8262 51.384 80.0053 51.384C78.3567 51.384 76.4462 50.8108 75.4061 49.6575C74.4862 48.5395 74.0263 47.1951 74.0263 45.6102L74.0122 41.5911H86.3027C86.3098 41.768 86.3239 41.9449 86.3239 42.1218V43.2681H86.331Z" fill="white"/>
<path d="M207.177 27.0717V53.358C207.177 56.2945 206.852 58.5163 206.208 60.0375C205.055 62.6839 202.854 64 199.613 64C197.024 64 195.036 63.3278 193.67 61.9834C192.517 60.8159 191.943 59.3653 191.943 57.6247H196.514C196.514 60.4621 197.746 61.8843 200.208 61.8843C201.474 61.8843 202.309 61.1201 202.706 59.5988C202.925 58.6578 203.031 56.9525 203.031 54.4902V32.8596C203.031 31.4445 202.543 30.468 201.573 29.9232C201.071 29.6331 200.208 29.4138 198.984 29.2722V28.3383L207.177 27.0717ZM204.934 21.9064C204.1 21.9064 203.378 21.6092 202.762 21.0078C202.147 20.4134 201.842 19.6917 201.842 18.8568C201.842 18.0218 202.147 17.3072 202.762 16.7057C203.378 16.1043 204.1 15.8071 204.934 15.8071C205.762 15.8071 206.491 16.1043 207.107 16.7057C207.722 17.3072 208.027 18.0218 208.027 18.8568C208.027 19.7271 207.729 20.4559 207.135 21.0361C206.534 21.6163 205.805 21.9064 204.934 21.9064Z" fill="white"/>
<path d="M214.572 52.9052V32.8596C214.572 31.4445 214.083 30.468 213.107 29.9303C212.605 29.6402 211.734 29.4208 210.503 29.2793V28.3453L218.718 27.0788V52.9123H214.572V52.9052ZM216.461 21.9064C215.598 21.9064 214.869 21.6092 214.274 21.0078C213.68 20.4134 213.383 19.6917 213.383 18.8568C213.383 18.0218 213.68 17.3072 214.274 16.7057C214.869 16.1043 215.598 15.8071 216.461 15.8071C217.289 15.8071 218.003 16.1043 218.598 16.7057C219.192 17.3072 219.489 18.0218 219.489 18.8568C219.489 19.7271 219.192 20.4559 218.598 21.0361C218.003 21.6163 217.289 21.9064 216.461 21.9064Z" fill="white"/>
<path d="M109.9 52.891V22.0904C109.9 20.4983 109.554 19.3874 108.86 18.7577C108.174 18.128 106.681 17.6468 104.395 17.3213V16.3873H131.234L131.255 23.0102H129.606C129.245 21.1988 128.906 20.095 128.573 19.6917C127.965 18.8921 125.63 18.4959 123.613 18.4959H117.938C116.459 18.4959 115.547 18.7152 115.186 19.1469C114.825 19.5785 114.641 20.5549 114.641 22.0691V32.7252H121.476C123.486 32.7252 124.865 32.2936 125.623 31.4374C126.125 30.8997 126.5 29.8454 126.755 28.2675H128.028V39.4896H126.755C126.429 37.6287 126.054 36.4612 125.623 35.9871C124.943 35.2229 123.556 34.8408 121.476 34.8408H114.641V47.6125C114.641 49.2046 114.945 50.1669 115.561 50.4924C115.922 50.6763 117.089 50.7612 119.07 50.7612H124.908C126.634 50.7612 127.788 50.4004 128.368 49.6787C128.8 49.1409 129.21 47.747 129.613 45.504H131.29L131.227 52.8769H109.9V52.891Z" fill="white"/>
<path d="M137.319 52.8911V32.8455C137.319 31.4304 136.823 30.4539 135.826 29.9162C135.309 29.626 134.404 29.4067 133.116 29.2652V28.3312L141.515 27.0576V34.296H141.628C142.286 32.6262 143.234 31.1615 144.472 29.8878C146.298 28.0057 148.392 27.0576 150.77 27.0576C153.253 27.0576 155.008 27.6519 156.027 28.8477C156.862 29.8595 157.286 31.4374 157.286 33.5743V52.8981H153.091V35.3362C153.091 33.4186 152.928 32.1096 152.595 31.4233C152.086 30.2629 150.968 29.6827 149.256 29.6827C147.388 29.6827 145.597 30.9492 143.885 33.4894C142.314 35.8102 141.529 37.9683 141.529 39.9566V52.8911H137.319Z" fill="white"/>
<path d="M185.349 52.8911V33.0082C185.349 31.5223 184.854 30.4964 183.877 29.9161C183.332 29.626 182.441 29.4067 181.202 29.2652V28.3312L189.502 27.0576V33.5318H189.616C190.953 29.2157 193.351 27.0576 196.819 27.0576C197.038 27.0576 197.201 27.0788 197.307 27.1142V31.6356C196.366 31.3525 195.771 31.211 195.524 31.211C191.512 31.211 189.509 34.0908 189.509 39.8505V52.8911H185.349Z" fill="white"/>
<path d="M227.81 27.8005C226.459 27.8005 225.291 27.3335 224.301 26.4066C223.31 25.4797 222.822 24.3476 222.822 23.0103C222.822 21.68 223.317 20.5479 224.301 19.6281C225.284 18.7082 226.459 18.2412 227.81 18.2412C229.162 18.2412 230.329 18.7011 231.32 19.6281C232.31 20.555 232.799 21.68 232.799 23.0103C232.799 24.3405 232.303 25.4797 231.32 26.4066C230.329 27.3335 229.162 27.8005 227.81 27.8005ZM223.572 23.0103C223.572 24.1282 223.989 25.0834 224.817 25.8689C225.645 26.6543 226.643 27.0505 227.803 27.0505C228.971 27.0505 229.961 26.6543 230.789 25.8689C231.617 25.0834 232.035 24.1282 232.035 23.0103C232.035 21.9064 231.617 20.9583 230.775 20.1729C229.94 19.3875 228.942 18.9912 227.796 18.9912C226.65 18.9912 225.652 19.3875 224.817 20.1729C223.996 20.9583 223.572 21.9064 223.572 23.0103ZM225.334 25.6566V25.2533C225.673 25.225 225.886 25.1684 225.978 25.0693C226.07 24.9773 226.119 24.7509 226.119 24.3971V21.3545C226.119 21.029 226.07 20.8309 225.978 20.7531C225.886 20.6823 225.673 20.6257 225.334 20.5833V20.18H227.931C228.624 20.18 229.133 20.2436 229.466 20.371C229.99 20.5833 230.251 20.9795 230.251 21.5597C230.251 21.9984 230.067 22.331 229.7 22.5574C229.516 22.6848 229.183 22.8051 228.702 22.9183C229.197 23.2154 229.537 23.64 229.721 24.1919C229.862 24.6447 230.004 24.8712 230.145 24.8712C230.372 24.8712 230.485 24.6447 230.485 24.1848H230.909C230.909 24.5811 230.825 24.9066 230.655 25.1754C230.457 25.5009 230.167 25.6566 229.784 25.6566C229.275 25.6566 228.928 25.4302 228.744 24.9773C228.631 24.5669 228.511 24.1424 228.383 23.7037C228.256 23.265 227.973 23.0456 227.534 23.0456H227.301V24.3546C227.301 24.758 227.336 24.9915 227.421 25.0622C227.499 25.133 227.732 25.1967 228.115 25.2533V25.6566H225.334ZM227.4 20.7955C227.329 20.8805 227.294 21.0786 227.294 21.3899V22.5928H227.74C228.553 22.5928 228.957 22.2744 228.957 21.6446C228.957 20.9371 228.652 20.5904 228.044 20.5904C227.711 20.5833 227.499 20.654 227.4 20.7955Z" fill="white"/>
<path d="M177.537 50.0678C177.056 50.5278 176.249 50.9594 175.103 51.0301L174.99 51.0372C173.752 51.0301 172.796 50.8674 171.997 50.5702L170.539 53.2944C171.558 53.4783 172.62 53.6411 173.787 53.6411C175.669 53.6411 177.558 53.5208 179.108 53.2732L179.066 53.2307H179.143V48.03H178.379C178.167 49.0489 177.891 49.7353 177.537 50.0678Z" fill="white"/>
<path d="M176.844 51.3344C176.547 51.3556 176.271 51.3698 176.051 51.3698C172.591 51.3698 169.768 49.8697 167.568 46.8625C165.692 44.294 164.758 41.485 164.758 38.4495V37.3103H180.594V36.4966C180.594 33.4257 179.709 31.0412 177.941 29.3359C176.313 27.8217 174.169 27.0576 171.502 27.0576C164.256 27.0576 160.626 31.2039 160.626 39.4825C160.626 43.9686 161.723 47.4286 163.916 49.8485C166.11 52.2755 169.202 53.4854 173.193 53.4854C174.445 53.4854 175.69 53.4217 176.837 53.3085V51.3344H176.844ZM170.759 29.1803C172.322 29.1803 173.589 29.7534 174.572 30.9068C175.443 32.0247 175.881 33.3762 175.881 34.9611V35.4494H164.766C165.133 31.2676 167.129 29.1803 170.759 29.1803Z" fill="white"/>
</svg>
