<svg width="300" height="300" viewBox="0 0 300 300" fill="none" xmlns="http://www.w3.org/2000/svg">
<path d="M295.273 67.9158C281.82 91.0813 268.489 114.04 266.264 117.893C268.635 111.394 268.058 104.096 264.528 97.9825L223.894 27.6017C220.364 21.4882 214.332 17.3395 207.518 16.143L265.305 16.0001C291.985 15.9341 308.673 44.8441 295.273 67.9158Z" fill="url(#paint0_linear_1773_27)"/>
<path d="M146.016 16.2219C158.416 16.1667 169.896 22.7603 176.096 33.4997L235.521 136.427C241.722 147.167 241.692 160.405 235.444 171.117L210.455 213.958L96.4197 16.4428L146.016 16.2219Z" fill="url(#paint1_linear_1773_27)"/>
<path d="M44.5567 16.4594L184.509 258.864L179.418 267.591C166.05 290.51 132.909 290.437 119.643 267.458L4.68048 68.3382C-8.58602 45.36 7.92038 16.6225 34.4531 16.5044L44.5567 16.4594Z" fill="url(#paint2_linear_1773_27)"/>
<defs>
<linearGradient id="paint0_linear_1773_27" x1="150" y1="16" x2="150" y2="284.736" gradientUnits="userSpaceOnUse">
<stop stop-color="#0B40FF"/>
<stop offset="1" stop-color="#6F18F3"/>
</linearGradient>
<linearGradient id="paint1_linear_1773_27" x1="150" y1="16" x2="150" y2="284.736" gradientUnits="userSpaceOnUse">
<stop stop-color="#0B40FF"/>
<stop offset="1" stop-color="#6F18F3"/>
</linearGradient>
<linearGradient id="paint2_linear_1773_27" x1="150" y1="16" x2="150" y2="284.736" gradientUnits="userSpaceOnUse">
<stop stop-color="#0B40FF"/>
<stop offset="1" stop-color="#6F18F3"/>
</linearGradient>
</defs>
</svg>
